<?xml version="1.0" standalone="no"?>
<!DOCTYPE svg PUBLIC "-//W3C//DTD SVG 20010904//EN"
 "http://www.w3.org/TR/2001/REC-SVG-20010904/DTD/svg10.dtd">
<svg version="1.0" xmlns="http://www.w3.org/2000/svg"
 width="700.000000pt" height="700.000000pt" viewBox="0 0 700.000000 700.000000"
 preserveAspectRatio="xMidYMid meet">
<metadata>
Created by potrace 1.14, written by Peter Selinger 2001-2017
</metadata>
<g transform="translate(0.000000,700.000000) scale(0.100000,-0.100000)"
fill="#000000" stroke="none">
<path d="M3584 6952 c-15 -26 -50 -87 -79 -137 -62 -106 -454 -784 -482 -835
-11 -19 -76 -132 -145 -250 -154 -266 -434 -750 -560 -970 -53 -91 -113 -194
-134 -230 l-39 -65 -115 1 c-63 1 -121 2 -127 3 -10 1 -13 222 -13 1071 l0
1071 -47 -27 c-27 -15 -90 -52 -140 -82 l-93 -54 -2 -991 -3 -991 -310 -1
-310 -1 -304 304 c-168 166 -308 299 -312 295 -10 -11 -106 -224 -111 -246 -2
-11 53 -73 161 -182 91 -91 158 -165 150 -166 -8 -1 -107 -2 -221 -3 -113 0
-209 -3 -211 -6 -6 -5 -43 -143 -52 -191 -3 -13 -7 -37 -11 -54 l-5 -30 398 1
398 1 352 -351 c194 -193 353 -356 353 -362 0 -6 -55 -105 -121 -220 -67 -115
-133 -229 -147 -254 -14 -25 -33 -57 -43 -72 -11 -14 -19 -29 -19 -32 0 -5
-108 -194 -141 -246 -8 -13 -94 -163 -506 -878 -70 -121 -69 -114 -30 -177 21
-35 79 -119 110 -158 l29 -38 13 23 c6 13 37 67 68 120 126 217 171 295 195
338 14 25 33 57 43 72 11 14 19 28 19 30 0 3 39 72 87 154 47 82 97 169 111
194 13 25 27 50 32 55 4 6 19 30 32 55 14 25 58 101 98 170 40 69 104 179 141
245 l69 120 0 -1211 0 -1211 51 -32 c28 -17 53 -31 56 -31 4 0 14 -6 22 -14 9
-7 77 -45 152 -84 134 -69 137 -70 148 -49 6 12 54 130 106 262 53 132 102
254 110 270 7 17 52 127 99 245 48 118 90 224 95 235 5 11 13 31 18 45 6 14
20 48 31 75 11 28 51 124 87 215 36 91 70 174 75 185 5 11 41 99 79 195 l70
175 585 -585 585 -585 10 -55 c13 -73 43 -228 82 -430 17 -91 35 -185 40 -210
4 -25 11 -56 14 -70 3 -14 12 -63 21 -110 9 -47 18 -92 19 -100 2 -8 4 -18 4
-22 2 -14 39 -9 164 23 67 17 132 33 144 36 21 5 29 26 47 118 3 11 14 66 27
123 l22 103 113 -113 c74 -73 120 -112 131 -110 22 5 235 101 246 111 4 4 -89
104 -207 222 l-215 215 30 139 c17 77 32 149 35 160 2 11 7 34 9 50 3 17 8 37
10 45 2 8 6 26 9 40 2 14 16 78 30 143 14 65 28 133 31 150 3 18 10 48 15 67
11 42 29 127 71 325 17 83 51 240 74 350 24 110 46 211 49 225 2 14 9 48 15
75 6 28 13 61 15 75 8 40 48 220 62 280 10 45 12 -170 13 -1243 l1 -1298 48
27 c26 15 89 52 139 82 l93 54 2 1521 3 1522 77 -190 c42 -104 149 -368 236
-585 290 -717 374 -925 387 -955 7 -16 25 -61 40 -100 15 -38 35 -88 44 -110
10 -22 37 -90 62 -152 35 -89 47 -109 57 -100 22 18 137 186 207 303 l65 108
0 1186 0 1186 178 0 c169 0 177 0 177 19 1 11 -13 74 -30 140 l-30 120 -2192
0 c-1206 0 -2193 4 -2193 8 0 9 261 465 291 509 11 15 19 29 19 32 0 2 79 140
175 306 96 167 175 305 175 307 0 2 8 16 19 31 14 21 261 447 388 672 88 155
357 617 365 627 5 6 5 13 1 16 -9 5 -134 17 -235 22 l-67 3 -27 -46z m-1974
-2940 l0 -175 -169 169 c-93 93 -168 171 -166 174 2 3 78 6 169 6 l166 0 0
-174z m370 171 c0 -3 -19 -40 -42 -82 l-43 -76 -3 69 c-2 38 -1 75 2 81 4 12
86 20 86 8z m1304 -18 c-3 -11 -12 -33 -19 -50 -18 -39 -81 -196 -189 -465
-47 -118 -90 -222 -94 -230 -4 -8 -66 -162 -137 -342 -72 -180 -134 -327 -139
-328 -10 0 -775 761 -776 773 0 4 18 37 40 73 22 36 40 67 40 69 0 2 21 39 47
82 25 43 60 103 77 133 112 201 173 300 186 302 8 2 230 4 492 4 476 0 478 -1
472 -21z m891 16 c8 -1 11 -413 11 -1337 0 -735 -3 -1328 -7 -1318 -4 11 -12
48 -19 84 -7 36 -14 74 -16 85 -2 11 -7 36 -10 55 -5 29 -31 165 -49 260 -3
14 -19 97 -36 185 -17 88 -32 171 -35 185 -35 180 -94 492 -98 515 -3 17 -8
41 -11 55 -2 14 -6 36 -9 50 -2 14 -7 36 -10 50 -3 14 -8 36 -10 50 -2 14 -12
66 -21 115 -9 50 -19 99 -21 110 -2 11 -6 31 -9 45 -7 31 -6 30 -54 285 -22
116 -42 221 -45 235 -3 14 -14 72 -25 130 -11 58 -23 119 -26 135 l-7 31 249
-2 c136 0 253 -2 258 -3z m897 0 c4 0 2 -16 -3 -33 -5 -18 -12 -46 -15 -63 -3
-16 -10 -50 -15 -75 -6 -25 -26 -119 -45 -210 -20 -91 -37 -172 -39 -180 -2
-8 -10 -51 -20 -95 -9 -44 -27 -130 -40 -192 -14 -61 -26 -122 -29 -135 -2
-13 -16 -75 -30 -138 -14 -63 -27 -126 -29 -140 -6 -31 -99 -468 -132 -615
-13 -60 -26 -121 -29 -135 -2 -14 -11 -57 -20 -95 -8 -39 -17 -82 -20 -95 -2
-14 -9 -45 -15 -70 -5 -25 -12 -56 -15 -70 -27 -140 -101 -470 -105 -470 -8 0
-7 2793 1 2805 5 8 565 14 600 6z m1218 -1016 c0 -590 -4 -1014 -9 -1005 -5 8
-53 123 -106 255 -53 132 -103 254 -110 270 -7 17 -31 75 -53 130 -95 237
-218 540 -327 810 -212 521 -223 550 -220 555 2 3 188 6 414 6 l411 0 0 -1021z
m-2821 585 c6 -36 17 -99 25 -140 8 -41 17 -91 21 -110 3 -19 12 -66 20 -105
7 -38 28 -144 45 -235 17 -91 37 -196 45 -235 8 -38 17 -86 20 -105 3 -19 8
-42 10 -50 2 -8 6 -33 10 -55 3 -22 7 -47 10 -55 2 -8 6 -26 9 -40 4 -27 55
-296 86 -455 21 -110 24 -125 45 -235 7 -41 25 -135 40 -208 14 -73 25 -137
23 -142 -2 -4 -217 206 -480 468 l-476 477 45 110 c24 61 76 189 115 285 38
96 76 189 83 205 14 32 214 525 247 610 23 57 38 88 43 83 1 -1 8 -32 14 -68z
m-916 -1393 c-23 -56 -120 -295 -216 -532 -96 -236 -220 -545 -277 -685 -56
-140 -118 -291 -136 -335 l-33 -80 -1 1219 0 1220 352 -352 352 -352 -41 -103z"/>
</g>
</svg>
